<svg xmlns="http://www.w3.org/2000/svg" width="24" height="24" viewBox="0 0 24 24"><path d="M19 0h-14c-2.761 0-5 2.239-5 5v14c0 2.761 2.239 5 5 5h14c2.762 0 5-2.239 5-5v-14c0-2.761-2.238-5-5-5zm-14 22h-1v-3h1v3zm0-17h-1v-3h1v3zm11-3h1v6h-1v-6zm-8 20h-1v-3h1v3zm1-6h-1.354v-3.889h-1.488v-1c.893-.041 1.701-.201 1.701-1.111h1.141v6zm-1-8h-1v-6h1v6zm3 14h-1v-3h1v3zm0-17h-1v-3h1v3zm3 17h-1v-3h1v3zm0-17h-1v-3h1v3zm3 17h-1v-3h1v3zm1-6.026h-3.922v-.958c1.529-1.491 2.379-2.244 2.389-3.018 0-.462-.268-.717-.754-.717-.453 0-.816.245-1.168.524l-.424-1.148c.545-.453 1.191-.657 1.833-.657 1.179 0 1.941.74 1.941 1.885 0 1.155-.899 2.042-1.722 2.782h1.827v1.307zm2 6.026h-1v-3h1v3zm0-17h-1v-3h1v3z"/></svg>