<svg xmlns="http://www.w3.org/2000/svg" width="24" height="24" viewBox="0 0 24 24"><path fill="#2e2f30" d="M22.266 14.724c-.064.898-.242 1.766-.522 2.586l1.601.675c-.163.461-.353.909-.568 1.344l-1.602-.676c-.383.751-.855 1.448-1.402 2.078l1.229 1.229c-.323.364-.667.709-1.032 1.032l-2.262-2.262c1.874-1.59 3.125-4.039 3.125-6.735 0-4.878-3.954-8.832-8.832-8.832s-8.833 3.954-8.833 8.832c0 2.505 1.107 5.024 3.126 6.735l-2.293 2.27-1.031-1.031 1.259-1.238c-.562-.647-1.046-1.365-1.434-2.139l-1.606.665c-.212-.436-.399-.885-.559-1.348l1.605-.664c-.268-.802-.439-1.646-.5-2.521h-1.735v-1.459h1.734c.063-.897.242-1.765.522-2.585l-1.6-.675c.163-.461.352-.91.567-1.344l1.602.675c.383-.75.855-1.448 1.403-2.078l-1.229-1.229c.323-.365.668-.709 1.032-1.031l1.229 1.229c.647-.562 1.366-1.045 2.141-1.433l-.665-1.606c.435-.212.885-.399 1.347-.558l.665 1.604c.802-.267 1.647-.438 2.522-.5v-1.734h1.459v1.733c.899.063 1.767.242 2.587.522l.675-1.6c.462.162.911.353 1.345.567l-.676 1.602c.751.383 1.449.854 2.08 1.402l1.229-1.229c.365.322.709.666 1.032 1.03l-1.229 1.229c.562.647 1.045 1.366 1.434 2.14l1.606-.665c.212.436.399.885.558 1.348l-1.604.664c.269.802.439 1.646.501 2.521h1.733v1.459h-1.734zm-3.434-.729c0 3.767-3.064 6.832-6.832 6.832s-6.833-3.065-6.833-6.832 3.065-6.832 6.833-6.832 6.832 3.065 6.832 6.832zm-7.36-1.81l-2.158-2.158-1.415 1.413 2.158 2.158 1.415-1.413z"/></svg>
