<?xml version="1.0" encoding="UTF-8"?>
<svg width="157px" height="157px" viewBox="0 0 157 157" version="1.1" xmlns="http://www.w3.org/2000/svg" xmlns:xlink="http://www.w3.org/1999/xlink">
    <!-- Generator: Sketch 42 (36781) - http://www.bohemiancoding.com/sketch -->
    <title>math</title>
    <desc>Created with Sketch.</desc>
    <defs></defs>
    <g id="Page-1" stroke="none" stroke-width="1" fill="none" fill-rule="evenodd">
        <g id="math">
            <path d="M78.522,0.466 C121.741,0.466 156.794,35.513 156.794,78.729 C156.794,121.951 121.741,157 78.522,157 C35.303,157 0.255,121.951 0.255,78.729 C0.255,35.513 35.303,0.466 78.522,0.466" id="Fill-1" fill="#E8E8DE"></path>
            <path d="M116.02,44.408 C117.632,44.408 118.958,45.733 118.958,47.351 L118.958,107.709 C118.958,109.326 117.632,110.651 116.02,110.651 L28.911,110.651 C27.294,110.651 25.967,109.331 25.967,107.709 L25.967,47.351 C25.967,45.729 27.294,44.408 28.911,44.408 L116.02,44.408 Z" id="Fill-18" fill="#CC394A"></path>
            <path d="M28.911,44.408 L72.463,44.408 L72.463,110.651 L28.911,110.651 C27.294,110.651 25.967,109.331 25.967,107.709 L25.967,47.351 C25.967,45.729 27.294,44.408 28.911,44.408" id="Fill-19" fill="#FF485E"></path>
            <path d="M31.98,40.503 L112.951,40.503 C114.572,40.503 115.89,41.83 115.89,43.45 L115.89,103.805 C115.89,105.427 114.572,106.752 112.951,106.752 L31.98,106.752 C30.358,106.752 29.035,105.427 29.035,103.805 L29.035,43.45 C29.035,41.83 30.358,40.503 31.98,40.503" id="Fill-158" fill="#97B6BC"></path>
            <path d="M72.463,40.503 L112.951,40.503 C114.572,40.503 115.89,41.83 115.89,43.45 L115.89,103.805 C115.89,105.427 114.572,106.752 112.951,106.752 L72.463,106.752 L72.463,40.503" id="Fill-159" fill="#7298A2"></path>
            <path d="M31.98,34.184 L112.951,34.184 C114.572,34.184 115.89,35.509 115.89,37.129 L115.89,97.489 C115.89,99.106 114.572,100.433 112.951,100.433 L31.98,100.433 C30.358,100.433 29.035,99.106 29.035,97.489 L29.035,37.129 C29.035,35.509 30.358,34.184 31.98,34.184" id="Fill-160" fill="#E0E6E0"></path>
            <path d="M31.98,34.184 L72.463,34.184 L72.463,100.433 L31.98,100.433 C30.358,100.433 29.035,99.106 29.035,97.489 L29.035,37.129 C29.035,35.509 30.358,34.184 31.98,34.184" id="Fill-161" fill="#EBEFE9"></path>
            <path d="M36.345,40.26 L67.799,40.26 C68.19,40.26 68.511,40.576 68.511,40.96 L68.511,47.942 C68.511,48.334 68.19,48.649 67.799,48.649 L36.345,48.649 C35.954,48.649 35.638,48.334 35.638,47.942 L35.638,40.96 C35.638,40.576 35.954,40.26 36.345,40.26" id="Fill-162" fill="#586464"></path>
            <path d="M36.345,62.996 L67.799,62.996 C68.19,62.996 68.511,63.318 68.511,63.701 L68.511,66.016 C68.511,66.403 68.19,66.723 67.799,66.723 L36.345,66.723 C35.957,66.723 35.638,66.409 35.638,66.016 L35.638,63.701 C35.638,63.313 35.954,62.996 36.345,62.996" id="Fill-163" fill="#3E4946"></path>
            <path d="M36.345,56.525 L61.736,56.525 C62.125,56.525 62.443,56.846 62.443,57.231 L62.443,59.546 C62.443,59.927 62.122,60.25 61.736,60.25 L36.345,60.25 C35.961,60.25 35.638,59.937 35.638,59.546 L35.638,57.231 C35.638,56.84 35.954,56.525 36.345,56.525" id="Fill-164" fill="#3E4946"></path>
            <path d="M112.951,34.184 L72.463,34.184 L72.463,100.433 L112.951,100.433 C114.572,100.433 115.89,99.106 115.89,97.489 L115.89,37.129 C115.89,35.509 114.572,34.184 112.951,34.184" id="Fill-165" fill="#B4C6CE"></path>
            <path d="M112.422,24.705 L72.463,34.184 L72.463,100.433 L112.951,90.811 C114.52,90.438 115.89,89.49 115.89,87.868 L115.89,27.509 C115.89,25.887 114.997,24.097 112.422,24.705" id="Fill-166" fill="#FFFFFF"></path>
            <path d="M59.872,75.941 L59.746,75.951 C59.596,75.951 59.451,75.903 59.331,75.824 L55.596,73.597 C55.36,73.463 55.231,73.214 55.231,72.959 L55.229,72.959 L55.229,33.309 C55.229,32.514 55.872,31.866 56.671,31.866 L63.08,31.866 C63.874,31.866 64.518,32.514 64.518,33.309 L64.518,72.959 C64.515,73.214 64.385,73.463 64.154,73.597 L60.414,75.824 C60.294,75.903 60.154,75.951 59.998,75.951 L59.872,75.941" id="Fill-167" fill="#9F8F6D"></path>
            <path d="M63.08,31.866 L59.872,31.866 L59.872,75.941 L59.998,75.951 C60.154,75.951 60.294,75.903 60.414,75.824 L64.154,73.597 C64.385,73.463 64.515,73.214 64.518,72.959 L64.518,33.309 C64.518,32.514 63.874,31.866 63.08,31.866" id="Fill-168" fill="#8E7F61"></path>
            <path d="M125.866,60.411 L130.286,60.637 L127.895,104.416 L127.124,104.377 C125.815,104.309 124.236,90.386 124.323,88.657 L125.866,60.411" id="Fill-169" fill="#DBDFDC"></path>
            <path d="M134.716,60.411 L130.286,60.637 L132.688,104.416 L133.458,104.377 C134.769,104.309 136.347,90.386 136.261,88.657 L134.716,60.411" id="Fill-170" fill="#B3BBBC"></path>
            <path d="M129.064,43.986 L131.518,43.986 C132.351,43.986 133.036,44.668 133.036,45.498 L133.036,54.02 L127.548,54.02 L127.548,45.498 C127.548,44.668 128.232,43.986 129.064,43.986" id="Fill-171" fill="#384A4E"></path>
            <path d="M130.286,43.986 L131.518,43.986 C132.351,43.986 133.036,44.668 133.036,45.504 L133.036,54.02 L130.286,54.02 L130.286,43.986" id="Fill-172" fill="#222D33"></path>
            <path d="M124.229,52.633 L136.354,52.633 C137.187,52.633 137.872,53.313 137.872,54.15 L137.872,60.304 C137.872,64.475 134.458,67.883 130.286,67.883 C126.118,67.883 122.711,64.475 122.711,60.304 L122.711,54.15 C122.711,53.313 123.396,52.633 124.229,52.633" id="Fill-173" fill="#4D5B5F"></path>
            <path d="M130.286,52.633 L136.354,52.633 C137.187,52.633 137.872,53.313 137.872,54.146 L137.872,60.304 C137.872,64.475 134.458,67.883 130.286,67.883 L130.286,52.633 L130.286,52.633 Z" id="Fill-174" fill="#303F45"></path>
            <path d="M130.286,58.281 C131.38,58.281 132.272,59.165 132.272,60.256 C132.272,61.354 131.38,62.237 130.286,62.237 C129.194,62.237 128.31,61.354 128.31,60.256 C128.31,59.165 129.194,58.281 130.286,58.281" id="Fill-175" fill="#EFEBDC"></path>
            <path d="M40.574,126.377 L56.922,126.377 C56.445,125.433 55.804,124.579 55.044,123.855 C53.41,122.306 51.192,121.359 48.746,121.359 C46.302,121.359 44.084,122.306 42.454,123.855 C41.691,124.579 41.059,125.433 40.574,126.377 Z M33.292,126.377 C34.063,123.476 35.632,120.903 37.739,118.9 C40.608,116.173 44.492,114.495 48.746,114.495 C53.008,114.495 56.887,116.173 59.76,118.9 C61.871,120.903 63.437,123.476 64.206,126.377 L68.598,126.377 L68.598,133.311 L41.589665,133.311 L28.906,133.311 L28.906,126.377 L33.292,126.377 Z" id="Fill-180" fill="#C3BBFF"></path>
            <path d="M59.76,118.9 C61.871,120.903 63.437,123.476 64.206,126.377 L68.598,126.377 L68.598,133.311 L48.746,133.311 L48.746,126.377 L56.922,126.377 C56.445,125.433 55.804,124.579 55.044,123.855 C53.41,122.306 51.192,121.359 48.746,121.359 L48.746,114.495 C53.008,114.495 56.887,116.173 59.76,118.9 Z" id="Fill-181" fill="#5A5AE6"></path>
            <path d="M70.691,126.891 L70.691,115.965 L131.575,115.965 L131.575,126.891 L70.691,126.891" id="Fill-182" fill="#E5EAE9"></path>
            <polyline id="Fill-183" fill="#B3BBBC" points="131.575 115.965 131.566 118.182 70.691 118.182 70.691 115.965 131.575 115.965"></polyline>
            <polygon id="Fill-184" fill="#6D737E" points="128.688 122.91 129.946 122.91 129.946 118.04 128.688 118.04"></polygon>
            <polygon id="Fill-185" fill="#6D737E" points="126.097 120.618 127.354 120.618 127.354 118.182 126.097 118.182"></polygon>
            <polygon id="Fill-186" fill="#6D737E" points="123.514 120.618 124.771 120.618 124.771 118.182 123.514 118.182"></polygon>
            <polygon id="Fill-187" fill="#6D737E" points="120.923 120.618 122.179 120.618 122.179 118.182 120.923 118.182"></polygon>
            <polygon id="Fill-188" fill="#6D737E" points="118.34 120.618 119.596 120.618 119.596 118.182 118.34 118.182"></polygon>
            <polygon id="Fill-189" fill="#6D737E" points="115.755 123.048 117.013 123.048 117.013 118.182 115.755 118.182"></polygon>
            <polygon id="Fill-190" fill="#6D737E" points="113.163 120.618 114.421 120.618 114.421 118.182 113.163 118.182"></polygon>
            <polygon id="Fill-191" fill="#6D737E" points="110.581 120.618 111.837 120.618 111.837 118.182 110.581 118.182"></polygon>
            <polygon id="Fill-192" fill="#6D737E" points="107.988 120.618 109.247 120.618 109.247 118.182 107.988 118.182"></polygon>
            <polygon id="Fill-193" fill="#6D737E" points="105.405 120.618 106.663 120.618 106.663 118.182 105.405 118.182"></polygon>
            <polygon id="Fill-194" fill="#6D737E" points="102.813 123.048 104.072 123.048 104.072 118.182 102.813 118.182"></polygon>
            <polygon id="Fill-195" fill="#6D737E" points="100.23 120.618 101.489 120.618 101.489 118.182 100.23 118.182"></polygon>
            <polygon id="Fill-196" fill="#6D737E" points="97.64 120.618 98.904 120.618 98.904 118.182 97.64 118.182"></polygon>
            <polygon id="Fill-197" fill="#6D737E" points="95.058 120.618 96.313 120.618 96.313 118.182 95.058 118.182"></polygon>
            <polygon id="Fill-198" fill="#6D737E" points="92.466 120.618 93.729 120.618 93.729 118.182 92.466 118.182"></polygon>
            <polygon id="Fill-199" fill="#6D737E" points="87.299 120.618 88.556 120.618 88.556 118.182 87.299 118.182"></polygon>
            <polygon id="Fill-200" fill="#6D737E" points="84.706 120.618 85.963 120.618 85.963 118.182 84.706 118.182"></polygon>
            <polygon id="Fill-201" fill="#6D737E" points="82.124 120.618 83.381 120.618 83.381 118.182 82.124 118.182"></polygon>
            <polygon id="Fill-202" fill="#6D737E" points="79.531 120.618 80.79 120.618 80.79 118.182 79.531 118.182"></polygon>
            <polygon id="Fill-203" fill="#6D737E" points="76.948 123.048 78.206 123.048 78.206 118.182 76.948 118.182"></polygon>
            <polygon id="Fill-204" fill="#6D737E" points="74.357 120.618 75.618 120.618 75.618 118.182 74.357 118.182"></polygon>
            <polygon id="Fill-205" fill="#6D737E" points="89.882 123.048 91.138 123.048 91.138 118.182 89.882 118.182"></polygon>
            <polygon id="Fill-206" fill="#6D737E" points="71.773 120.618 73.031 120.618 73.031 118.182 71.773 118.182"></polygon>
            <path d="M36.733,90.687 C36.542,90.687 36.361,90.651 36.188,90.585 C36.015,90.518 35.86,90.416 35.729,90.288 C35.589,90.157 35.485,90.001 35.407,89.82 C35.329,89.633 35.291,89.429 35.286,89.199 C35.291,88.969 35.329,88.762 35.407,88.576 C35.485,88.393 35.589,88.234 35.729,88.104 C35.86,87.971 36.015,87.872 36.188,87.803 C36.361,87.734 36.542,87.7 36.733,87.7 C36.914,87.7 37.098,87.734 37.271,87.803 C37.44,87.872 37.592,87.971 37.73,88.104 C37.868,88.234 37.973,88.393 38.051,88.576 C38.129,88.762 38.172,88.969 38.172,89.199 C38.172,89.429 38.129,89.633 38.051,89.82 C37.973,90.001 37.868,90.157 37.73,90.288 C37.592,90.416 37.44,90.518 37.271,90.585 C37.098,90.651 36.914,90.687 36.733,90.687 Z M39.48,91.994 L39.48,86.402 L38.533,86.402 L38.454,87.196 C38.315,87.018 38.151,86.863 37.96,86.735 C37.771,86.603 37.557,86.505 37.33,86.43 C37.098,86.361 36.854,86.321 36.595,86.321 C36.196,86.321 35.832,86.402 35.503,86.547 C35.166,86.695 34.878,86.903 34.636,87.163 C34.394,87.426 34.202,87.734 34.069,88.076 C33.934,88.423 33.869,88.8 33.864,89.199 C33.869,89.597 33.934,89.971 34.069,90.317 C34.202,90.663 34.394,90.962 34.636,91.227 C34.878,91.487 35.166,91.692 35.503,91.839 C35.832,91.987 36.196,92.06 36.595,92.066 C36.854,92.06 37.098,92.027 37.33,91.956 C37.557,91.885 37.771,91.787 37.96,91.66 C38.151,91.53 38.315,91.378 38.454,91.2 L38.533,91.994 L39.48,91.994 L39.48,91.994 Z" id="Fill-207" fill="#3E4946"></path>
            <path d="M50.72,87.703 C50.906,87.703 51.089,87.738 51.262,87.807 C51.433,87.877 51.586,87.977 51.721,88.108 C51.859,88.238 51.963,88.397 52.042,88.578 C52.119,88.766 52.163,88.973 52.163,89.202 C52.163,89.429 52.119,89.635 52.042,89.82 C51.963,90.005 51.859,90.162 51.721,90.292 C51.586,90.42 51.433,90.522 51.262,90.589 C51.089,90.655 50.906,90.691 50.72,90.691 C50.533,90.691 50.352,90.655 50.183,90.589 C50.009,90.522 49.856,90.42 49.719,90.292 C49.583,90.162 49.476,90.005 49.397,89.82 C49.319,89.635 49.276,89.429 49.276,89.202 C49.276,88.973 49.319,88.766 49.397,88.578 C49.476,88.397 49.583,88.238 49.719,88.108 C49.856,87.977 50.009,87.877 50.183,87.807 C50.352,87.738 50.533,87.703 50.72,87.703 Z M49.389,84.168 L47.967,84.168 L47.967,91.998 L48.917,91.998 L48.999,91.205 C49.207,91.472 49.476,91.679 49.796,91.833 C50.117,91.987 50.473,92.066 50.862,92.07 C51.262,92.066 51.63,91.989 51.96,91.843 C52.292,91.696 52.579,91.491 52.82,91.233 C53.063,90.968 53.251,90.663 53.384,90.317 C53.514,89.974 53.583,89.603 53.583,89.202 C53.583,88.804 53.514,88.427 53.384,88.08 C53.251,87.734 53.063,87.432 52.82,87.167 C52.579,86.907 52.292,86.699 51.96,86.551 C51.63,86.406 51.262,86.325 50.862,86.325 C50.559,86.325 50.281,86.386 50.021,86.495 C49.771,86.608 49.553,86.759 49.389,86.954 L49.389,84.168 L49.389,84.168 Z" id="Fill-208" fill="#3E4946"></path>
            <path d="M64.995,86.372 C64.593,86.372 64.22,86.451 63.877,86.599 C63.531,86.744 63.231,86.945 62.967,87.209 C62.702,87.474 62.504,87.775 62.356,88.12 C62.209,88.465 62.131,88.841 62.131,89.24 C62.131,89.635 62.209,90.011 62.356,90.358 C62.504,90.702 62.702,91.006 62.967,91.265 C63.231,91.53 63.531,91.73 63.877,91.877 C64.22,92.031 64.593,92.102 64.995,92.102 C65.29,92.102 65.572,92.06 65.841,91.975 C66.11,91.891 66.361,91.773 66.591,91.619 C66.819,91.466 67.02,91.285 67.202,91.077 L66.348,90.157 C66.122,90.365 65.9,90.514 65.685,90.605 C65.468,90.687 65.234,90.729 64.995,90.725 C64.809,90.725 64.626,90.691 64.453,90.625 C64.281,90.557 64.124,90.457 63.989,90.326 C63.856,90.195 63.747,90.039 63.67,89.858 C63.591,89.676 63.552,89.469 63.552,89.24 C63.552,89.009 63.591,88.8 63.67,88.618 C63.747,88.437 63.856,88.282 63.989,88.15 C64.124,88.021 64.281,87.92 64.453,87.853 C64.626,87.787 64.809,87.751 64.995,87.751 C65.234,87.747 65.468,87.791 65.685,87.872 C65.9,87.964 66.122,88.112 66.348,88.318 L67.202,87.405 C67.02,87.192 66.819,87.01 66.591,86.859 C66.361,86.701 66.11,86.585 65.841,86.499 C65.572,86.416 65.29,86.372 64.995,86.372" id="Fill-209" fill="#3E4946"></path>
            <path d="M55.829,90.302 L60.463,90.302 L60.463,89.415 L55.829,89.415 L55.829,90.302 Z M55.829,88.708 L60.463,88.708 L60.463,87.826 L55.829,87.826 L55.829,88.708 Z" id="Fill-210" fill="#3E4946"></path>
            <polyline id="Fill-211" fill="#3E4946" points="43.973 88.519 43.973 86.637 43.009 86.637 43.009 88.519 41.176 88.519 41.176 89.404 43.009 89.404 43.009 91.271 43.973 91.271 43.973 89.404 45.809 89.404 45.809 88.519 43.973 88.519"></polyline>
            <path d="M42.217,84.67 L42.217,83.998 L40.687,83.998 L41.188,83.556 C41.396,83.401 41.569,83.247 41.713,83.096 C41.856,82.951 41.965,82.797 42.038,82.647 C42.115,82.492 42.152,82.326 42.155,82.153 C42.155,82.018 42.125,81.884 42.077,81.756 C42.024,81.631 41.952,81.521 41.848,81.419 C41.744,81.322 41.618,81.241 41.467,81.18 C41.311,81.126 41.132,81.089 40.929,81.086 L40.886,81.086 C40.655,81.086 40.426,81.141 40.2,81.244 C39.975,81.354 39.759,81.515 39.541,81.735 L40.009,82.157 C40.117,82.061 40.219,81.982 40.313,81.926 C40.408,81.866 40.496,81.826 40.583,81.796 L40.835,81.756 L40.859,81.756 C40.973,81.762 41.076,81.783 41.164,81.826 L41.375,82.007 C41.431,82.085 41.457,82.181 41.457,82.298 L41.389,82.551 L41.215,82.777 C41.141,82.849 41.059,82.924 40.964,82.993 L39.476,84.24 L39.476,84.67 L42.217,84.67" id="Fill-212" fill="#3E4946"></path>
            <path d="M53.853,84.67 L53.853,83.998 L52.328,83.998 L52.831,83.556 C53.038,83.401 53.21,83.247 53.35,83.096 C53.497,82.951 53.605,82.797 53.679,82.647 C53.758,82.492 53.791,82.326 53.791,82.153 C53.791,82.018 53.766,81.884 53.714,81.756 C53.662,81.631 53.589,81.521 53.489,81.419 C53.384,81.322 53.254,81.241 53.106,81.18 C52.95,81.126 52.77,81.089 52.569,81.086 L52.527,81.086 C52.292,81.086 52.066,81.141 51.842,81.244 C51.616,81.354 51.399,81.515 51.184,81.735 L51.646,82.157 C51.755,82.061 51.859,81.982 51.955,81.926 C52.046,81.866 52.136,81.826 52.219,81.796 L52.471,81.756 L52.502,81.756 C52.613,81.762 52.712,81.783 52.805,81.826 L53.013,82.007 C53.067,82.085 53.094,82.181 53.094,82.298 L53.03,82.551 L52.852,82.777 C52.777,82.849 52.696,82.924 52.604,82.993 L51.113,84.24 L51.113,84.67 L53.853,84.67" id="Fill-213" fill="#3E4946"></path>
            <path d="M69.04,84.67 L69.04,83.998 L67.51,83.998 L68.016,83.556 C68.22,83.401 68.393,83.247 68.536,83.096 C68.679,82.951 68.787,82.797 68.865,82.647 C68.939,82.492 68.979,82.326 68.979,82.153 C68.979,82.018 68.953,81.884 68.901,81.756 C68.85,81.631 68.771,81.521 68.675,81.419 C68.57,81.322 68.441,81.241 68.289,81.18 C68.138,81.126 67.955,81.089 67.751,81.086 L67.714,81.086 C67.479,81.086 67.249,81.141 67.028,81.244 C66.804,81.354 66.582,81.515 66.369,81.735 L66.829,82.157 C66.94,82.061 67.046,81.982 67.138,81.926 C67.229,81.866 67.323,81.826 67.399,81.796 L67.653,81.756 L67.687,81.756 C67.799,81.762 67.895,81.783 67.986,81.826 C68.077,81.866 68.146,81.926 68.198,82.007 C68.25,82.085 68.276,82.181 68.28,82.298 L68.216,82.551 L68.034,82.777 L67.791,82.993 L66.3,84.24 L66.3,84.67 L69.04,84.67" id="Fill-214" fill="#3E4946"></path>
            <path d="M90.318,38.709 L89.712,39.814 L84.2,36.788 L84.807,35.682 L90.318,38.709 Z M96.942,42.339 L96.336,43.447 L90.821,40.415 L91.42,39.314 L96.942,42.339 Z M103.755,43.423 L103.468,42.196 L109.588,40.744 L109.873,41.966 L103.755,43.423 Z M99.361,44.465 L102.533,43.714 L102.246,42.487 L98.728,43.324 L98.043,42.949 L97.436,44.047 L99.091,44.959 L99.361,44.465 Z M111.096,41.677 L110.811,40.455 L115.89,39.245 L115.89,40.537 L111.096,41.677 Z M104.707,73.308 L104.413,72.084 L110.533,70.629 L110.828,71.851 L104.707,73.308 Z M112.05,71.56 L111.756,70.338 L115.89,69.36 L115.89,70.648 L112.05,71.56 Z M98.762,87.759 L100.027,87.759 L100.027,81.467 L98.762,81.467 L98.762,87.759 Z M98.762,94.093 L100.027,94.093 L100.027,89.017 L98.762,89.017 L98.762,94.093 Z M100.027,80.21 L98.762,80.21 L98.762,73.922 L99.395,73.922 L99.247,73.312 L103.191,72.373 L103.477,73.597 L100.027,74.416 L100.027,80.21 Z M78.278,76.704 L77.673,77.81 L72.159,74.781 L72.767,73.679 L78.278,76.704 Z M80.134,92.184 L81.399,92.184 L81.399,85.898 L80.134,85.898 L80.134,92.184 Z M80.134,98.516 L81.399,98.516 L81.399,93.442 L80.134,93.442 L80.134,98.516 Z M81.399,84.64 L80.134,84.64 L80.134,79.11 L80.117,79.15 L78.782,78.41 L79.381,77.31 L80.724,78.049 L80.55,78.346 L81.399,78.346 L81.399,84.64 Z M83.705,35.08 L83.099,36.181 L77.587,33.158 L78.192,32.055 L83.705,35.08 L83.705,35.08 Z" id="Fill-215" fill="#A2AAAB"></path>
            <path d="M98.139,72.929 L98.139,49.309 L83.229,76.471 L98.139,72.929 Z M100.651,44.408 L100.651,73.922 C100.651,74.516 100.234,75.018 99.68,75.15 L99.647,75.156 L81.052,79.575 C80.378,79.732 79.7,79.313 79.545,78.637 C79.467,78.298 79.527,77.966 79.693,77.693 L98.294,43.804 C98.623,43.198 99.395,42.971 100.002,43.306 C100.417,43.536 100.651,43.967 100.651,44.408 L100.651,44.408 Z" id="Fill-216" fill="#A2AAAB"></path>
            <path d="M108.175,58.849 C108.098,59.029 107.993,59.186 107.854,59.32 C107.716,59.447 107.569,59.546 107.394,59.617 C107.224,59.684 107.039,59.72 106.85,59.72 C106.667,59.72 106.484,59.684 106.32,59.617 C106.147,59.546 105.991,59.447 105.854,59.32 C105.721,59.186 105.609,59.029 105.531,58.849 C105.453,58.667 105.41,58.458 105.41,58.229 C105.41,57.998 105.453,57.796 105.531,57.61 C105.609,57.422 105.721,57.267 105.854,57.137 C105.991,57.005 106.147,56.906 106.32,56.832 C106.484,56.764 106.667,56.727 106.85,56.727 C107.039,56.727 107.224,56.764 107.394,56.832 C107.569,56.906 107.716,57.005 107.854,57.137 C107.993,57.267 108.098,57.422 108.175,57.61 C108.253,57.796 108.298,57.998 108.298,58.229 C108.298,58.458 108.253,58.667 108.175,58.849 Z M109.52,57.111 C109.38,56.764 109.197,56.455 108.955,56.195 C108.712,55.937 108.427,55.728 108.098,55.58 C107.76,55.433 107.394,55.355 106.997,55.355 C106.692,55.355 106.415,55.41 106.155,55.523 C105.905,55.636 105.688,55.787 105.523,55.981 L105.523,53.193 L104.103,53.193 L104.103,61.028 L105.054,61.028 L105.133,60.23 C105.34,60.499 105.609,60.708 105.93,60.864 C106.251,61.015 106.606,61.089 106.997,61.093 C107.394,61.093 107.76,61.021 108.098,60.871 C108.427,60.726 108.712,60.521 108.955,60.256 C109.197,59.997 109.38,59.694 109.52,59.347 C109.648,59 109.718,58.627 109.718,58.229 C109.718,57.83 109.648,57.457 109.52,57.111 L109.52,57.111 Z" id="Fill-217" fill="#3E4946"></path>
            <path d="M80.948,61.93 C81.088,61.802 81.244,61.704 81.409,61.633 C81.581,61.566 81.764,61.53 81.954,61.53 C82.197,61.526 82.431,61.568 82.647,61.657 C82.857,61.743 83.081,61.892 83.306,62.104 L84.156,61.183 C83.982,60.974 83.782,60.794 83.55,60.637 C83.315,60.488 83.072,60.366 82.803,60.284 C82.535,60.201 82.249,60.159 81.954,60.159 C81.555,60.159 81.184,60.23 80.836,60.379 C80.489,60.527 80.186,60.73 79.927,60.99 C79.666,61.254 79.458,61.557 79.311,61.9 C79.163,62.245 79.095,62.623 79.085,63.022 C79.095,63.421 79.163,63.793 79.311,64.134 C79.458,64.483 79.666,64.786 79.927,65.049 C80.186,65.31 80.489,65.514 80.836,65.66 C81.184,65.807 81.555,65.884 81.954,65.886 C82.249,65.884 82.535,65.844 82.803,65.761 C83.072,65.675 83.315,65.555 83.55,65.402 C83.782,65.244 83.982,65.067 84.156,64.854 L83.306,63.937 C83.081,64.149 82.857,64.294 82.647,64.383 C82.431,64.469 82.197,64.513 81.954,64.509 C81.764,64.509 81.581,64.475 81.409,64.406 C81.244,64.341 81.088,64.24 80.948,64.109 C80.819,63.979 80.707,63.824 80.628,63.636 C80.55,63.456 80.516,63.247 80.507,63.022 C80.516,62.791 80.55,62.583 80.628,62.401 C80.707,62.215 80.819,62.06 80.948,61.93" id="Fill-218" fill="#3E4946"></path>
            <path d="M92.079,83.483 C92.001,83.669 91.887,83.824 91.757,83.954 C91.619,84.084 91.463,84.178 91.29,84.249 C91.117,84.32 90.943,84.353 90.752,84.353 C90.572,84.353 90.388,84.32 90.216,84.249 C90.042,84.178 89.887,84.084 89.755,83.954 C89.617,83.824 89.513,83.669 89.436,83.483 C89.357,83.299 89.313,83.092 89.313,82.867 C89.313,82.639 89.357,82.43 89.436,82.244 C89.513,82.059 89.617,81.9 89.755,81.771 C89.887,81.641 90.042,81.541 90.216,81.471 C90.388,81.402 90.572,81.368 90.752,81.368 C90.943,81.368 91.117,81.402 91.29,81.471 C91.463,81.541 91.619,81.641 91.757,81.771 C91.887,81.9 92.001,82.059 92.079,82.244 C92.156,82.43 92.199,82.639 92.199,82.867 C92.199,83.092 92.156,83.299 92.079,83.483 Z M92.479,80.862 C92.339,80.686 92.175,80.533 91.983,80.403 C91.794,80.27 91.586,80.17 91.35,80.098 C91.125,80.023 90.883,79.991 90.622,79.991 C90.225,79.991 89.858,80.067 89.521,80.216 C89.192,80.362 88.906,80.571 88.663,80.831 C88.411,81.095 88.23,81.398 88.093,81.744 C87.961,82.091 87.893,82.468 87.893,82.867 C87.893,83.267 87.961,83.638 88.093,83.981 C88.23,84.327 88.411,84.63 88.663,84.893 C88.906,85.157 89.192,85.358 89.521,85.507 C89.858,85.655 90.225,85.727 90.622,85.733 C90.883,85.727 91.125,85.691 91.35,85.624 C91.586,85.555 91.794,85.455 91.983,85.326 C92.175,85.193 92.339,85.043 92.479,84.869 L92.556,85.662 L93.509,85.662 L93.509,80.067 L92.556,80.067 L92.479,80.862 L92.479,80.862 Z" id="Fill-219" fill="#3E4946"></path>
            <path d="M36.345,69.467 L46.927,69.467 C47.313,69.467 47.628,69.792 47.628,70.173 L47.628,72.487 C47.628,72.869 47.309,73.195 46.927,73.195 L36.345,73.195 C35.961,73.195 35.638,72.877 35.638,72.487 L35.638,70.173 C35.638,69.783 35.954,69.467 36.345,69.467" id="Fill-220" fill="#3E4946"></path>
        </g>
    </g>
</svg>